# Blender v2.91.0 OBJ File: 'gachya_01.blend'
# www.blender.org
mtllib hammer.mtl
o Cube:001_Cube:004:001.001
v 3.427196 8.433573 -0.181724
v 3.431324 8.434109 0.173006
v 3.438851 8.372585 0.133707
v 3.435637 8.372168 -0.142424
v 3.489421 7.986890 0.173006
v 2.694396 8.338375 0.181727
v 2.752494 7.891159 0.181728
v 2.690267 8.337841 -0.173003
v 2.701745 8.255450 -0.107573
v 2.704350 8.255788 0.116298
v 2.748365 7.890622 -0.173003
v 3.485293 7.986354 -0.181724
v 3.480979 8.048295 0.133707
v 3.563432 8.059006 0.132732
v 3.521305 8.383296 0.132732
v 3.477765 8.047877 -0.142423
v 3.518091 8.382877 -0.143400
v 3.521355 8.400714 0.147288
v 3.517802 8.400252 -0.158005
v 3.560218 8.058589 -0.143400
v 3.567932 8.042178 0.147288
v 3.564378 8.041717 -0.158005
v 3.619036 8.046687 -0.155690
v 3.622520 8.047138 0.143685
v 3.928223 7.849133 -0.143820
v 3.887177 8.165094 -0.143820
v 3.890309 8.165503 0.125220
v 3.931354 7.849540 0.125221
v 3.573452 8.398272 -0.155687
v 3.791088 7.994227 -0.148773
v 3.747431 8.325835 -0.148796
v 3.576936 8.398724 0.143680
v 3.750708 8.326262 0.132962
v 3.794367 7.994653 0.132924
v 3.719508 8.036007 0.137456
v 3.716143 8.035570 -0.151685
v 3.671857 8.375365 -0.151692
v 3.675223 8.375802 0.137465
v 2.605631 8.242965 -0.106435
v 2.608236 8.243301 0.117435
v 2.741017 7.973548 0.116298
v 2.738411 7.973210 -0.107572
v 2.599083 8.289969 -0.143764
v 2.602558 8.290421 0.154765
v 2.644902 7.961062 0.117435
v 2.642297 7.960725 -0.106435
v 2.647976 7.913606 -0.143764
v 2.285084 7.850961 -0.151540
v 2.232231 8.257816 -0.151541
v 2.651451 7.914057 0.154765
v 2.288840 7.851449 0.171174
v 2.235986 8.258304 0.171174
v 3.093975 7.974751 -0.108885
v 3.131248 7.979593 -0.109328
v 3.563769 4.650163 -0.109325
v 3.526496 4.645322 -0.108885
v 3.005900 7.963310 0.020077
v 3.005463 7.963252 -0.017511
v 3.437984 4.633823 -0.017509
v 3.438421 4.633880 0.020078
v 3.449458 4.635314 -0.062809
v 3.481855 4.639523 -0.096254
v 3.608691 4.655999 -0.097756
v 3.641859 4.660308 -0.065086
v 3.654383 4.661935 -0.020070
v 3.654820 4.661992 0.017517
v 3.643347 4.660501 0.062816
v 3.610950 4.656292 0.096263
v 3.566309 4.650493 0.108891
v 3.529035 4.645651 0.109334
v 3.484113 4.639816 0.097763
v 3.450946 4.635507 0.065093
v 3.221862 7.991364 -0.020072
v 3.222300 7.991420 0.017516
v 3.133788 7.979922 0.108890
v 3.096514 7.975081 0.109331
v 3.176170 7.985429 -0.097757
v 3.209337 7.989738 -0.065087
v 3.178429 7.985722 0.096260
v 3.210826 7.989930 0.062815
v 3.018425 7.964937 0.065092
v 3.051592 7.969245 0.097762
v 3.049335 7.968951 -0.096256
v 3.016936 7.964744 -0.062810
vt 0.019407 0.867080
vt 0.018811 0.896614
vt 0.014977 0.897837
vt 0.015298 0.864611
vt 0.015347 0.936075
vt 0.088564 0.895348
vt 0.092641 0.936009
vt 0.088049 0.868104
vt 0.094404 0.866133
vt 0.094308 0.895409
vt 0.090179 0.831024
vt 0.019736 0.827573
vt 0.017313 0.796689
vt 0.095113 0.799406
vt 0.011967 0.929246
vt 0.003906 0.927140
vt 0.007247 0.896369
vt 0.015799 0.830995
vt 0.011727 0.802786
vt 0.896442 0.519507
vt 0.925549 0.497717
vt 0.925423 0.498474
vt 0.897171 0.519412
vt 0.007380 0.864839
vt 0.007802 0.832153
vt 0.003906 0.805133
vt 0.902916 0.590120
vt 0.897798 0.559128
vt 0.903326 0.559553
vt 0.908957 0.590138
vt 0.900818 0.588490
vt 0.896442 0.558608
vt 0.962263 0.507552
vt 0.964004 0.509632
vt 0.935322 0.567011
vt 0.927484 0.545980
vt 0.947665 0.537239
vt 0.956201 0.568573
vt 0.901902 0.522046
vt 0.920767 0.562560
vt 0.915531 0.532661
vt 0.963582 0.515739
vt 0.927303 0.503496
vt 0.936337 0.519951
vt 0.964152 0.539775
vt 0.931606 0.587572
vt 0.920584 0.589015
vt 0.913046 0.560982
vt 0.909557 0.527234
vt 0.931805 0.512317
vt 0.963227 0.528149
vt 0.103783 0.867026
vt 0.103407 0.893784
vt 0.098029 0.925184
vt 0.096625 0.834772
vt 0.101662 0.810572
vt 0.656533 0.591646
vt 0.660160 0.616488
vt 0.657389 0.615354
vt 0.651818 0.591908
vt 0.107256 0.922727
vt 0.105798 0.836579
vt 0.110600 0.813827
vt 0.652864 0.646604
vt 0.616902 0.649390
vt 0.625918 0.615230
vt 0.666709 0.567892
vt 0.665199 0.562056
vt 0.657145 0.644464
vt 0.666709 0.663291
vt 0.664246 0.669363
vt 0.587029 0.628081
vt 0.615537 0.590255
vt 0.627894 0.682427
vt 0.629263 0.548256
vt 0.937301 0.314043
vt 0.933828 0.314043
vt 0.933828 0.003906
vt 0.937301 0.003906
vt 0.888015 0.314043
vt 0.884541 0.314043
vt 0.884541 0.003906
vt 0.888015 0.003906
vt 0.107044 0.009699
vt 0.107044 0.007998
vt 0.107591 0.005951
vt 0.109089 0.004456
vt 0.111134 0.003906
vt 0.112837 0.003906
vt 0.114882 0.004454
vt 0.116379 0.005951
vt 0.116926 0.007998
vt 0.116926 0.009699
vt 0.116379 0.011747
vt 0.114882 0.013242
vt 0.112837 0.013791
vt 0.111134 0.013791
vt 0.109089 0.013244
vt 0.107591 0.011747
vt 0.920872 0.314043
vt 0.917399 0.314043
vt 0.917399 0.003906
vt 0.920872 0.003906
vt 0.904444 0.314043
vt 0.900970 0.314043
vt 0.900970 0.003906
vt 0.904444 0.003906
vt 0.929510 0.314043
vt 0.929508 0.003906
vt 0.925190 0.314043
vt 0.925190 0.003906
vt 0.908761 0.003906
vt 0.908761 0.314043
vt 0.913079 0.003906
vt 0.913081 0.314043
vt 0.892332 0.003906
vt 0.892332 0.314043
vt 0.896653 0.003906
vt 0.896653 0.314043
vt 0.941619 0.003906
vt 0.941619 0.314043
vt 0.945937 0.003906
vt 0.945937 0.314043
vt 0.950257 0.003906
vt 0.950257 0.314043
vt 0.380834 0.005581
vt 0.380834 0.006278
vt 0.380610 0.007115
vt 0.379997 0.007729
vt 0.379159 0.007953
vt 0.378463 0.007953
vt 0.377626 0.007729
vt 0.377013 0.007116
vt 0.376788 0.006278
vt 0.376788 0.005581
vt 0.377012 0.004744
vt 0.377625 0.004131
vt 0.378463 0.003906
vt 0.379159 0.003906
vt 0.379996 0.004131
vt 0.380609 0.004743
vn 0.9916 0.1288 -0.0117
vn 0.0116 0.0015 0.9999
vn -0.9916 -0.1288 0.0117
vn -0.0116 -0.0015 -0.9999
vn 0.1288 -0.9917 0.0000
vn -0.1288 0.9917 0.0000
vn -0.9999 -0.0069 0.0116
vn 0.0905 -0.9959 0.0005
vn -0.9685 -0.2489 0.0117
vn -0.9796 -0.1273 0.1556
vn -0.9829 -0.1277 -0.1324
vn 0.0418 0.0054 -0.9991
vn 0.0651 0.0085 0.9978
vn 0.0357 0.9994 -0.0019
vn 0.7548 0.6559 -0.0098
vn -0.4832 -0.8755 0.0069
vn -0.1138 -0.9935 0.0028
vn 0.5483 0.8362 -0.0076
vn 0.2269 0.9739 -0.0041
vn -0.7269 -0.6867 0.0095
vn 0.0210 0.0027 -0.9998
vn 0.9916 0.1288 -0.0118
vn 0.1701 -0.9854 -0.0005
vn -0.0873 0.9962 -0.0005
vn 0.0442 0.0057 0.9990
vn -0.1410 -0.0183 -0.9898
vn 0.1179 0.0153 -0.9929
vn -0.9816 -0.1275 0.1421
vn -0.9846 -0.1279 -0.1189
vn 0.9816 0.1275 -0.1422
vn 0.9846 0.1279 0.1189
vn 0.1410 0.0183 0.9898
vn -0.1179 -0.0153 0.9929
vn 0.4857 0.0631 -0.8718
vn 0.8529 0.1108 -0.5101
vn 0.5059 0.0657 0.8601
vn 0.8646 0.1123 0.4898
vn -0.8529 -0.1108 0.5101
vn -0.4857 -0.0631 0.8718
vn -0.5059 -0.0657 -0.8601
vn -0.8646 -0.1123 -0.4898
usemtl app_01
s off
f 1/1/1 2/2/1 3/3/1 4/4/1
f 5/5/2 2/2/2 6/6/2 7/7/2
f 6/6/3 8/8/3 9/9/3 10/10/3
f 11/11/4 8/8/4 1/1/4 12/12/4
f 5/13/5 7/14/5 11/11/5 12/12/5
f 6/6/6 2/2/6 1/1/6 8/8/6
f 3/3/2 13/15/2 14/16/2 15/17/2
f 5/13/1 12/12/1 16/18/1 13/19/1
f 2/2/1 5/5/1 13/15/1 3/3/1
f 12/12/1 1/1/1 4/4/1 16/18/1
f 17/20/7 15/21/7 18/22/7 19/23/7
f 16/18/4 4/4/4 17/24/4 20/25/4
f 4/4/6 3/3/6 15/17/6 17/24/6
f 13/19/5 16/18/5 20/25/5 14/26/5
f 21/27/8 22/28/8 23/29/8 24/30/8
f 14/31/9 20/32/9 22/28/9 21/27/9
f 15/21/10 14/33/10 21/34/10 18/22/10
f 20/32/11 17/20/11 19/23/11 22/28/11
f 25/35/1 26/36/1 27/37/1 28/38/1
f 22/28/12 19/23/12 29/39/12 23/29/12
f 30/40/12 31/41/12 26/36/12 25/35/12
f 18/22/13 21/34/13 24/42/13 32/43/13
f 19/23/14 18/22/14 32/43/14 29/39/14
f 31/41/15 33/44/15 27/37/15 26/36/15
f 33/44/13 34/45/13 28/38/13 27/37/13
f 30/40/16 34/46/16 35/47/16 36/48/16
f 36/48/17 35/47/17 24/30/17 23/29/17
f 33/44/18 31/41/18 37/49/18 38/50/18
f 38/50/19 37/49/19 29/39/19 32/43/19
f 31/41/12 30/40/12 36/48/12 37/49/12
f 37/49/12 36/48/12 23/29/12 29/39/12
f 34/45/13 33/44/13 38/50/13 35/51/13
f 35/51/13 38/50/13 32/43/13 24/42/13
f 34/46/20 30/40/20 25/35/20 28/38/20
f 10/10/6 9/9/6 39/52/6 40/53/6
f 7/7/3 6/6/3 10/10/3 41/54/3
f 8/8/3 11/11/3 42/55/3 9/9/3
f 11/11/3 7/14/3 41/56/3 42/55/3
f 40/57/1 39/58/1 43/59/1 44/60/1
f 41/54/2 10/10/2 40/53/2 45/61/2
f 9/9/4 42/55/4 46/62/4 39/52/4
f 42/55/5 41/56/5 45/63/5 46/62/5
f 43/59/21 47/64/21 48/65/21 49/66/21
f 45/67/22 40/57/22 44/60/22 50/68/22
f 39/58/1 46/69/1 47/64/1 43/59/1
f 46/69/1 45/70/1 50/71/1 47/64/1
f 51/72/3 52/73/3 49/66/3 48/65/3
f 47/64/23 50/71/23 51/74/23 48/65/23
f 44/60/24 43/59/24 49/66/24 52/73/24
f 50/68/25 44/60/25 52/73/25 51/75/25
s 1
f 53/76/26 54/77/27 55/78/27 56/79/26
f 57/80/28 58/81/29 59/82/29 60/83/28
f 60/84/5 59/85/5 61/86/5 62/87/5 56/88/5 55/89/5 63/90/5 64/91/5 65/92/5 66/93/5 67/94/5 68/95/5 69/96/5 70/97/5 71/98/5 72/99/5
f 73/100/30 74/101/31 66/102/31 65/103/30
f 75/104/32 76/105/33 70/106/33 69/107/32
f 54/77/27 77/108/34 63/109/34 55/78/27
f 77/108/34 78/110/35 64/111/35 63/109/34
f 78/110/35 73/100/30 65/103/30 64/111/35
f 69/107/32 68/112/36 79/113/36 75/104/32
f 68/112/36 67/114/37 80/115/37 79/113/36
f 67/114/37 66/102/31 74/101/31 80/115/37
f 60/83/28 72/116/38 81/117/38 57/80/28
f 72/116/38 71/118/39 82/119/39 81/117/38
f 71/118/39 70/106/33 76/105/33 82/119/39
f 56/79/26 62/120/40 83/121/40 53/76/26
f 62/120/40 61/122/41 84/123/41 83/121/40
f 61/122/41 59/124/29 58/125/29 84/123/41
f 74/126/6 73/127/6 78/128/6 77/129/6 54/130/6 53/131/6 83/132/6 84/133/6 58/134/6 57/135/6 81/136/6 82/137/6 76/138/6 75/139/6 79/140/6 80/141/6
