# This file uses centimeters as units for non-parametric coordinates.

mtllib crys_bg02.mtl
g default
v 6.275668 -5.133739 4.802645
v -16.522932 86.583983 -18.427186
v -20.493752 71.480920 -11.773516
v -19.670472 79.486093 -19.339525
v -1.183604 -6.202956 7.901888
v 1.784871 -6.827756 2.521638
v 4.791275 -4.821310 7.493039
v 1.062022 -5.355864 9.042504
v -19.320837 76.643425 -11.725888
v -17.335620 84.194203 -15.052389
vt 0.393892 0.021649
vt 0.789999 0.396100
vt 0.000000 0.000503
vt 0.416875 0.000000
vt 0.380535 0.034232
vt 0.362918 0.050828
vt 0.687243 0.418150
vt 0.717390 0.427128
vt 0.765338 0.442731
vt 0.176393 0.000000
vt 0.000216 0.016290
vt 0.018778 0.031822
vt 0.037127 0.031571
vt 0.036694 0.000000
vt 0.351425 0.061653
vt 0.324713 0.086816
vt 0.108505 0.027570
vt 0.151375 0.001026
vt 0.790377 0.442549
vt 0.090384 0.053282
vt 0.154884 0.041169
vt 0.697837 0.482917
vn 0.845067 0.318776 0.429236
vn 0.845067 0.318776 0.429236
vn 0.845067 0.318776 0.429236
vn 0.845067 0.318776 0.429236
vn -0.944331 0.303853 0.126147
vn -0.944331 0.303853 0.126147
vn -0.944331 0.303853 0.126147
vn -0.944331 0.303853 0.126147
vn -0.944331 0.303853 0.126147
vn -0.845068 -0.318776 -0.429234
vn -0.845068 -0.318776 -0.429234
vn -0.845068 -0.318776 -0.429234
vn -0.845068 -0.318776 -0.429234
vn 0.480607 -0.101158 -0.871082
vn 0.480607 -0.101158 -0.871082
vn 0.480607 -0.101158 -0.871082
vn 0.480607 -0.101158 -0.871082
vn -0.480606 0.101158 0.871082
vn -0.480606 0.101158 0.871082
vn -0.480606 0.101158 0.871082
vn -0.480606 0.101158 0.871082
vn 0.234260 -0.942416 0.238691
vn 0.234260 -0.942417 0.238691
vn 0.234260 -0.942416 0.238691
vn 0.234260 -0.942416 0.238691
vn 0.234260 -0.942416 0.238691
vn 0.327145 0.307622 0.893502
vn 0.327145 0.307622 0.893502
vn 0.327145 0.307622 0.893502
vn 0.327145 0.307622 0.893502
s off
g pCube6 crys_bg02
usemtl blinn3SG
f 10/9/1 7/5/2 1/1/3 2/19/4
f 4/21/5 3/20/6 9/17/7 10/18/8 2/10/9
f 4/22/10 6/16/11 5/15/12 3/7/13
f 6/4/14 4/2/15 2/19/16 1/1/17
f 8/6/18 9/8/19 3/7/20 5/15/21
f 7/12/22 8/11/23 5/3/24 6/14/25 1/13/26
f 8/6/27 7/5/28 10/9/29 9/8/30
g default
v 0.786142 -2.731578 -14.706982
v -0.601198 22.925079 -42.007924
v -9.972280 21.587397 -44.706198
v -7.834226 0.663732 -11.422934
v 2.858232 -10.930113 11.845472
v 7.328495 2.828155 -7.057039
v 0.613477 30.583231 -32.328335
v -10.079000 42.177086 -55.596799
v -14.549251 28.418814 -36.694236
v -6.619552 8.321885 -1.743348
v 2.751530 9.659566 0.954929
v -8.006892 33.978544 -29.044296
vt 0.660288 0.583583
vt 0.633990 0.802084
vt 0.407540 0.856106
vt 0.395011 0.595755
vt 0.443064 0.423030
vt 0.594267 0.561910
vt 0.568827 0.777504
vt 0.554277 0.943048
vt 0.463981 0.820087
vt 0.468109 0.572836
vt 0.524222 0.544948
vt 0.516680 0.784046
vt 0.683641 0.833055
vt 0.717521 0.576685
vt 0.618547 0.420909
vn 0.289491 -0.690123 -0.663269
vn 0.289491 -0.690123 -0.663269
vn 0.289491 -0.690123 -0.663269
vn -0.470163 -0.760491 -0.447884
vn -0.470163 -0.760491 -0.447884
vn -0.470163 -0.760491 -0.447884
vn -0.432408 -0.870506 -0.235039
vn -0.432408 -0.870506 -0.235039
vn -0.432408 -0.870506 -0.235039
vn 0.776333 -0.582644 -0.240485
vn 0.776333 -0.582644 -0.240485
vn 0.776333 -0.582644 -0.240485
vn 0.819943 -0.395767 -0.413597
vn 0.819943 -0.395767 -0.413597
vn 0.819943 -0.395767 -0.413597
vn 0.305879 -0.443909 -0.842249
vn 0.305879 -0.443909 -0.842249
vn 0.305879 -0.443909 -0.842248
vn -0.903040 -0.387419 -0.185543
vn -0.903040 -0.387419 -0.185543
vn -0.903040 -0.387419 -0.185543
vn -0.922019 -0.238857 0.304678
vn -0.922019 -0.238857 0.304678
vn -0.922019 -0.238857 0.304678
vn 0.913830 0.193564 0.356998
vn 0.913830 0.193564 0.356998
vn 0.913830 0.193564 0.356998
vn 0.980845 0.072796 -0.180677
vn 0.980845 0.072796 -0.180677
vn 0.980845 0.072796 -0.180677
vn 0.922019 0.238857 -0.304678
vn 0.922019 0.238857 -0.304678
vn 0.922019 0.238857 -0.304678
vn -0.913830 -0.193566 -0.356998
vn -0.913830 -0.193566 -0.356998
vn -0.913830 -0.193566 -0.356998
vn -0.980845 -0.072795 0.180678
vn -0.980845 -0.072795 0.180678
vn -0.980845 -0.072795 0.180678
vn -0.305880 0.443907 0.842249
vn -0.305880 0.443907 0.842249
vn -0.305880 0.443907 0.842249
vn 0.903040 0.387419 0.185543
vn 0.903040 0.387419 0.185543
vn 0.903040 0.387419 0.185543
vn 0.432408 0.870505 0.235039
vn 0.432408 0.870505 0.235039
vn 0.432408 0.870505 0.235039
vn -0.776332 0.582645 0.240485
vn -0.776332 0.582645 0.240485
vn -0.776332 0.582645 0.240485
vn -0.819942 0.395767 0.413598
vn -0.819942 0.395767 0.413598
vn -0.819942 0.395767 0.413598
vn -0.289491 0.690123 0.663269
vn -0.289491 0.690123 0.663269
vn -0.289491 0.690123 0.663269
vn 0.470163 0.760491 0.447884
vn 0.470163 0.760491 0.447884
vn 0.470163 0.760491 0.447884
s off
g crys_bg02 pPlatonic3
usemtl blinn3SG
f 11/23/31 13/35/32 12/24/33
f 11/23/34 14/36/35 13/35/36
f 11/23/37 15/37/38 14/36/39
f 11/23/40 16/28/41 15/37/42
f 11/23/43 12/24/44 16/28/45
f 12/24/46 13/35/47 18/30/48
f 13/25/49 14/26/50 19/31/51
f 14/26/52 15/27/53 20/32/54
f 15/37/55 16/28/56 21/33/57
f 16/28/58 12/24/59 17/29/60
f 12/24/61 18/30/62 17/29/63
f 13/25/64 19/31/65 18/30/66
f 14/26/67 20/32/68 19/31/69
f 15/27/70 21/33/71 20/32/72
f 16/28/73 17/29/74 21/33/75
f 17/29/76 18/30/77 22/34/78
f 18/30/79 19/31/80 22/34/81
f 19/31/82 20/32/83 22/34/84
f 20/32/85 21/33/86 22/34/87
f 21/33/88 17/29/89 22/34/90
g default
v 0.698283 24.848080 -2.478629
v 6.992192 46.647850 -0.712628
v -7.081416 25.848581 3.050814
v -1.705769 -7.805344 9.140201
v 6.992192 5.049305 6.814265
v 8.477983 27.467422 11.997647
v 3.102342 61.121354 5.908265
v -5.595631 48.266698 8.234201
v -5.595625 6.668157 15.761090
v 0.698283 28.467930 17.527094
vt 0.816531 0.315238
vt 0.787897 0.304158
vt 0.693952 0.272250
vt 0.585822 0.000000
vt 0.883663 0.108032
vt 0.839693 0.141155
vt 0.785357 0.243921
vt 0.718361 0.234014
vt 0.718928 0.027424
vt 0.773050 0.110840
vt 0.920366 0.324894
vt 0.983527 0.017467
vn -0.545536 0.222951 -0.807888
vn -0.545536 0.222951 -0.807888
vn -0.545536 0.222951 -0.807888
vn -0.545536 0.222951 -0.807888
vn -0.545536 0.222951 -0.807888
vn -0.583065 -0.233911 -0.778024
vn -0.583065 -0.233911 -0.778024
vn -0.583065 -0.233911 -0.778024
vn 0.261881 -0.340591 -0.903004
vn 0.261881 -0.340591 -0.903004
vn 0.261882 -0.340591 -0.903004
vn 0.665994 -0.132818 -0.734038
vn 0.665994 -0.132818 -0.734038
vn 0.665994 -0.132818 -0.734038
vn -0.968772 -0.184681 -0.165447
vn -0.968772 -0.184681 -0.165447
vn -0.968772 -0.184681 -0.165447
vn 0.545536 -0.222951 0.807888
vn 0.545536 -0.222951 0.807888
vn 0.545536 -0.222951 0.807888
vn 0.545536 -0.222951 0.807888
vn 0.545536 -0.222951 0.807888
vn 0.986909 -0.028715 -0.158699
vn 0.986909 -0.028715 -0.158699
vn 0.986909 -0.028715 -0.158699
vn 0.968773 0.184681 0.165446
vn 0.968773 0.184681 0.165446
vn 0.968773 0.184681 0.165446
vn -0.986909 0.028715 0.158699
vn -0.986909 0.028715 0.158699
vn -0.986909 0.028715 0.158699
vn 0.583065 0.233911 0.778024
vn 0.583065 0.233911 0.778024
vn 0.583065 0.233911 0.778024
vn -0.261881 0.340590 0.903004
vn -0.261881 0.340590 0.903004
vn -0.261881 0.340590 0.903004
vn -0.665994 0.132817 0.734038
vn -0.665994 0.132817 0.734038
vn -0.665994 0.132817 0.734038
s off
g crys_bg02 pPlatonic2
usemtl blinn3SG
f 29/44/91 24/39/92 23/38/93 25/40/94 30/45/95
f 23/38/96 26/49/97 25/48/98
f 23/38/99 27/42/100 26/49/101
f 23/38/102 24/39/103 27/42/104
f 25/40/105 26/41/106 31/46/107
f 32/47/108 31/46/109 26/49/110 27/42/111 28/43/112
f 27/42/113 24/39/114 28/43/115
f 24/39/116 29/44/117 28/43/118
f 25/40/119 31/46/120 30/45/121
f 28/43/122 29/44/123 32/47/124
f 29/44/125 30/45/126 32/47/127
f 30/45/128 31/46/129 32/47/130
g default
v 6.602213 22.572398 -20.445656
v 29.312513 83.641501 -59.057617
v 15.487061 84.335667 -61.909856
v -4.251209 27.802373 -17.414024
v -2.624674 -7.831217 12.938079
v 18.118828 26.679200 -12.799020
v 34.121342 90.980620 -49.537341
v 32.494813 126.614274 -79.889514
v 11.751305 92.103807 -54.152354
v 0.557631 35.141499 -7.893754
v 14.383078 34.447332 -5.041515
v 23.267925 96.210614 -46.505715
vt 0.320017 0.271895
vt 0.297753 0.717967
vt 0.003395 0.749586
vt 0.000000 0.285892
vt 0.059505 0.007947
vt 0.234445 0.284402
vt 0.223230 0.721061
vt 0.205640 1.000000
vt 0.069689 0.735271
vt 0.078017 0.292436
vt 0.164060 0.286254
vt 0.152617 0.728045
vt 0.380413 0.727749
vt 0.393202 0.262230
vt 0.265848 0.000000
vn 0.139275 -0.565684 -0.812775
vn 0.139275 -0.565684 -0.812775
vn 0.139275 -0.565684 -0.812775
vn -0.436738 -0.457265 -0.774706
vn -0.436738 -0.457265 -0.774706
vn -0.436738 -0.457265 -0.774706
vn -0.467208 -0.585576 -0.662433
vn -0.467208 -0.585576 -0.662433
vn -0.467208 -0.585576 -0.662433
vn 0.556451 -0.685083 -0.470131
vn 0.556451 -0.685083 -0.470131
vn 0.556451 -0.685083 -0.470131
vn 0.584392 -0.577658 -0.569910
vn 0.584392 -0.577658 -0.569910
vn 0.584392 -0.577658 -0.569910
vn 0.160172 -0.440163 -0.883516
vn 0.160172 -0.440163 -0.883516
vn 0.160172 -0.440163 -0.883516
vn -0.906716 -0.015153 -0.421470
vn -0.906716 -0.015153 -0.421470
vn -0.906716 -0.015153 -0.421470
vn -0.928369 0.215529 0.302784
vn -0.928369 0.215529 0.302784
vn -0.928369 0.215529 0.302784
vn 0.843978 -0.116895 0.523485
vn 0.843978 -0.116895 0.523485
vn 0.843978 -0.116895 0.523485
vn 0.918043 -0.342542 -0.199653
vn 0.918043 -0.342542 -0.199653
vn 0.918043 -0.342542 -0.199653
vn 0.928369 -0.215529 -0.302783
vn 0.928369 -0.215529 -0.302783
vn 0.928369 -0.215529 -0.302783
vn -0.843978 0.116893 -0.523485
vn -0.843978 0.116893 -0.523485
vn -0.843978 0.116893 -0.523485
vn -0.918043 0.342542 0.199654
vn -0.918043 0.342542 0.199654
vn -0.918043 0.342542 0.199654
vn -0.160172 0.440163 0.883516
vn -0.160173 0.440163 0.883516
vn -0.160173 0.440163 0.883516
vn 0.906716 0.015153 0.421470
vn 0.906716 0.015153 0.421470
vn 0.906716 0.015153 0.421470
vn 0.467208 0.585576 0.662432
vn 0.467208 0.585576 0.662432
vn 0.467208 0.585576 0.662432
vn -0.556451 0.685083 0.470131
vn -0.556451 0.685083 0.470131
vn -0.556451 0.685083 0.470131
vn -0.584392 0.577658 0.569910
vn -0.584392 0.577658 0.569910
vn -0.584392 0.577658 0.569910
vn -0.139276 0.565685 0.812775
vn -0.139276 0.565685 0.812775
vn -0.139276 0.565685 0.812775
vn 0.436739 0.457265 0.774705
vn 0.436739 0.457265 0.774705
vn 0.436739 0.457265 0.774705
s off
g crys_bg02 pPlatonic9
usemtl blinn3SG
f 33/50/131 35/62/132 34/51/133
f 33/50/134 36/63/135 35/62/136
f 33/50/137 37/64/138 36/63/139
f 33/50/140 38/55/141 37/64/142
f 33/50/143 34/51/144 38/55/145
f 34/51/146 35/62/147 40/57/148
f 35/52/149 36/53/150 41/58/151
f 36/53/152 37/54/153 42/59/154
f 37/64/155 38/55/156 43/60/157
f 38/55/158 34/51/159 39/56/160
f 34/51/161 40/57/162 39/56/163
f 35/52/164 41/58/165 40/57/166
f 36/53/167 42/59/168 41/58/169
f 37/54/170 43/60/171 42/59/172
f 38/55/173 39/56/174 43/60/175
f 39/56/176 40/57/177 44/61/178
f 40/57/179 41/58/180 44/61/181
f 41/58/182 42/59/183 44/61/184
f 42/59/185 43/60/186 44/61/187
f 43/60/188 39/56/189 44/61/190
