# This file uses centimeters as units for non-parametric coordinates.

mtllib crys_bg01.mtl
g default
v 12.739370 -0.286817 1.643377
v -39.205563 108.852303 9.693781
v -39.570151 87.904007 12.424815
v -41.585785 100.047680 6.301652
v 4.426620 -4.535593 5.606213
v 7.298632 -2.661119 -1.274434
v 11.303221 -1.224147 5.084044
v 7.147263 -3.348322 7.065263
v -39.293574 94.226386 14.262644
v -39.111300 104.699484 12.897265
vt 0.385835 0.030620
vt 0.946063 0.560220
vt 0.197047 0.000711
vt 0.418340 0.000000
vt 0.366943 0.048416
vt 0.342026 0.071887
vt 0.800731 0.591406
vt 0.843369 0.604104
vt 0.911184 0.626171
vt 0.743101 0.000000
vt 0.197353 0.023039
vt 0.223605 0.045007
vt 0.249556 0.044652
vt 0.248945 0.000000
vt 0.325772 0.087199
vt 0.287991 0.122787
vt 0.647084 0.038994
vt 0.707717 0.001452
vt 0.946597 0.625913
vt 0.621455 0.075359
vt 0.712679 0.058227
vt 0.815714 0.683007
vn 0.822538 0.358950 0.441119
vn 0.822538 0.358950 0.441119
vn 0.822538 0.358950 0.441119
vn 0.822538 0.358950 0.441119
vn -0.959013 0.052981 0.278364
vn -0.959013 0.052981 0.278364
vn -0.959013 0.052981 0.278364
vn -0.959013 0.052981 0.278364
vn -0.959013 0.052981 0.278364
vn -0.822538 -0.358950 -0.441118
vn -0.822538 -0.358950 -0.441118
vn -0.822538 -0.358950 -0.441118
vn -0.822538 -0.358950 -0.441118
vn 0.373571 0.243818 -0.894985
vn 0.373571 0.243818 -0.894985
vn 0.373571 0.243818 -0.894985
vn 0.373571 0.243818 -0.894985
vn -0.373570 -0.243818 0.894985
vn -0.373570 -0.243818 0.894985
vn -0.373570 -0.243818 0.894985
vn -0.373570 -0.243818 0.894985
vn 0.428807 -0.900948 -0.066456
vn 0.428807 -0.900948 -0.066456
vn 0.428807 -0.900948 -0.066456
vn 0.428808 -0.900948 -0.066456
vn 0.428807 -0.900948 -0.066456
vn 0.379877 0.113081 0.918099
vn 0.379877 0.113081 0.918099
vn 0.379877 0.113081 0.918099
vn 0.379877 0.113081 0.918099
s off
g pCube3 crys_bg01
usemtl blinn2SG
f 10/9/1 7/5/2 1/1/3 2/19/4
f 4/21/5 3/20/6 9/17/7 10/18/8 2/10/9
f 4/22/10 6/16/11 5/15/12 3/7/13
f 6/4/14 4/2/15 2/19/16 1/1/17
f 8/6/18 9/8/19 3/7/20 5/15/21
f 7/12/22 8/11/23 5/3/24 6/14/25 1/13/26
f 8/6/27 7/5/28 10/9/29 9/8/30
g default
v 6.732589 -5.746163 -1.055448
v -52.818573 99.743606 -1.055461
v -41.312178 84.954165 8.706601
v -52.494300 91.730646 4.456406
v 9.126983 -4.394477 8.706611
v 3.548194 -7.543820 4.456414
v 9.522262 -4.171335 1.069861
v 10.719338 -3.495560 5.950402
v -42.521768 90.816486 5.950394
v -48.274388 98.210466 1.069854
vt 0.097843 0.347612
vt 0.658072 0.877213
vt 0.260708 0.000711
vt 0.130349 0.316993
vt 0.078951 0.365408
vt 0.054034 0.388880
vt 0.512739 0.908398
vt 0.555378 0.921096
vt 0.623192 0.943163
vt 0.840109 0.000000
vt 0.261014 0.023039
vt 0.287266 0.045007
vt 0.313218 0.044652
vt 0.312606 0.000000
vt 0.037780 0.404191
vt 0.000000 0.439780
vt 0.744092 0.038994
vt 0.804725 0.001452
vt 0.658606 0.942906
vt 0.718463 0.075359
vt 0.809687 0.058227
vt 0.527723 1.000000
vn 0.481421 0.271773 -0.833291
vn 0.481421 0.271773 -0.833291
vn 0.481421 0.271773 -0.833291
vn 0.481421 0.271773 -0.833291
vn -0.114829 0.483468 0.867798
vn -0.114829 0.483468 0.867798
vn -0.114829 0.483468 0.867798
vn -0.114829 0.483468 0.867798
vn -0.114829 0.483468 0.867798
vn -0.481421 -0.271772 0.833291
vn -0.481421 -0.271772 0.833291
vn -0.481421 -0.271772 0.833291
vn -0.481421 -0.271772 0.833291
vn -0.725648 -0.409644 -0.552835
vn -0.725648 -0.409644 -0.552835
vn -0.725648 -0.409644 -0.552835
vn -0.725648 -0.409644 -0.552835
vn 0.725649 0.409644 0.552834
vn 0.725649 0.409644 0.552834
vn 0.725649 0.409644 0.552834
vn 0.725649 0.409644 0.552834
vn 0.491597 -0.870823 0.000000
vn 0.491597 -0.870823 0.000000
vn 0.491597 -0.870823 0.000000
vn 0.491597 -0.870823 0.000000
vn 0.491597 -0.870823 0.000000
vn 0.838209 0.473186 -0.271111
vn 0.838209 0.473186 -0.271111
vn 0.838209 0.473186 -0.271111
vn 0.838209 0.473186 -0.271111
s off
g crys_bg01 pCube4
usemtl blinn2SG
f 20/31/31 17/27/32 11/23/33 12/41/34
f 14/43/35 13/42/36 19/39/37 20/40/38 12/32/39
f 14/44/40 16/38/41 15/37/42 13/29/43
f 16/26/44 14/24/45 12/41/46 11/23/47
f 18/28/48 19/30/49 13/29/50 15/37/51
f 17/34/52 18/33/53 15/25/54 16/36/55 11/35/56
f 18/28/57 17/27/58 20/31/59 19/30/60
g default
v -2.848885 -10.859599 -8.372466
v -85.170643 134.966342 -8.372484
v -66.702109 115.968399 6.727414
v -84.928693 123.772987 -0.882273
v 3.023489 -7.544520 6.727426
v -7.457213 -13.461095 -0.882267
v 2.391988 -7.901015 -4.567239
v 5.327878 -6.243644 2.981950
v -68.271041 124.130538 2.981941
v -77.504377 133.628550 -4.567243
vt 0.123150 0.030271
vt 0.676328 0.567242
vt 0.003430 0.000000
vt 0.156160 0.000000
vt 0.097520 0.053774
vt 0.067761 0.081064
vt 0.519413 0.606727
vt 0.561927 0.619951
vt 0.633970 0.638770
vt 0.637781 0.000305
vt 0.000000 0.022132
vt 0.031155 0.047818
vt 0.065747 0.051376
vt 0.072606 0.007115
vt 0.051254 0.096201
vt 0.000000 0.143201
vt 0.531422 0.037966
vt 0.595476 0.000000
vt 0.675884 0.633026
vt 0.509290 0.076598
vt 0.611788 0.060738
vt 0.520168 0.710443
vn 0.465380 0.262717 -0.845222
vn 0.465381 0.262717 -0.845222
vn 0.465380 0.262717 -0.845222
vn 0.465380 0.262717 -0.845222
vn -0.234898 0.454548 0.859191
vn -0.234898 0.454548 0.859191
vn -0.234898 0.454548 0.859191
vn -0.234898 0.454548 0.859191
vn -0.234898 0.454548 0.859191
vn -0.465380 -0.262716 0.845223
vn -0.465380 -0.262716 0.845223
vn -0.465380 -0.262716 0.845223
vn -0.465379 -0.262716 0.845223
vn -0.711223 -0.401500 -0.577027
vn -0.711223 -0.401500 -0.577027
vn -0.711223 -0.401500 -0.577027
vn -0.711223 -0.401500 -0.577027
vn 0.711223 0.401500 0.577026
vn 0.711223 0.401500 0.577026
vn 0.711223 0.401500 0.577026
vn 0.711223 0.401500 0.577026
vn 0.491597 -0.870822 -0.000000
vn 0.491598 -0.870823 -0.000000
vn 0.491598 -0.870823 -0.000000
vn 0.491597 -0.870822 -0.000000
vn 0.491598 -0.870822 -0.000000
vn 0.795133 0.448869 -0.407774
vn 0.795133 0.448869 -0.407774
vn 0.795133 0.448869 -0.407774
vn 0.795133 0.448869 -0.407774
s off
g crys_bg01 pCube5
usemtl blinn2SG
f 30/53/61 27/49/62 21/45/63 22/63/64
f 24/65/65 23/64/66 29/61/67 30/62/68 22/54/69
f 24/66/70 26/60/71 25/59/72 23/51/73
f 26/48/74 24/46/75 22/63/76 21/45/77
f 28/50/78 29/52/79 23/51/80 25/59/81
f 27/56/82 28/55/83 25/47/84 26/58/85 21/57/86
f 28/50/87 27/49/88 30/53/89 29/52/90
